<svg width="40" height="40" viewBox="0 0 40 40" fill="none" xmlns="http://www.w3.org/2000/svg">
<rect width="40" height="40" rx="8" fill="#E6F2EF"/>
<path fill-rule="evenodd" clip-rule="evenodd" d="M22.6005 12.4677L27.5335 17.4031L24.9011 25.3044L10.8215 30L19.5093 21.2984C19.6028 21.3234 19.7009 21.3366 19.8022 21.3366C20.428 21.3366 20.9353 20.829 20.9353 20.2029C20.9353 19.5768 20.428 19.0693 19.8022 19.0693C19.1765 19.0693 18.6691 19.5768 18.6691 20.2029C18.6691 20.3047 18.6825 20.4033 18.7077 20.4972L10 29.2187L14.7033 15.1015L22.6005 12.4677ZM25.4676 10L30 14.5346L28.1344 16.4011L23.6021 11.8665L25.4676 10Z" fill="#1F7A6E"/>
</svg>
