<svg width="200" height="72" viewBox="0 0 200 72" fill="none" xmlns="http://www.w3.org/2000/svg">
<rect x="0.5" y="0.5" width="199" height="71" rx="11.5" fill="white"/>
<rect x="0.5" y="0.5" width="199" height="71" rx="11.5" stroke="#E5E7EB"/>
<mask id="mask0_77_46" style="mask-type:luminance" maskUnits="userSpaceOnUse" x="57" y="19" width="86" height="34">
<path d="M142.5 19.5H57.5V52.5H142.5V19.5Z" fill="white"/>
</mask>
<g mask="url(#mask0_77_46)">
<path d="M121.747 28.5821H119.772V19.6386H121.747V28.5846V28.5821ZM63.3261 28.5821H57.5V19.6386H63.1264C64.9901 19.6386 66.0597 20.5171 66.0597 22.0489C66.0597 23.165 65.3416 23.707 64.9167 23.9321C65.7866 24.2935 66.3202 25.0928 66.3202 26.0505C66.3202 27.612 65.1721 28.5821 63.3261 28.5821ZM59.4016 23.2219H62.8381C63.9457 23.2219 64.1784 22.6899 64.1784 22.242C64.1784 21.6109 63.7029 21.262 62.8381 21.262H59.4016V23.2195V23.2219ZM63.0986 26.9414C63.9027 26.9414 64.4034 26.5331 64.4034 25.8773C64.4034 25.2215 63.8926 24.8132 63.0986 24.8132H59.4016V26.9439H63.0986V26.9414ZM76.2453 26.8919H69.8603V24.8355H75.5727V23.1601H69.8603V21.3238H76.2453V19.6386H67.9107V28.5821H76.2453V26.8944V26.8919ZM142.498 21.3263V19.6386H134.163V28.5821H142.498V26.8944H136.113V24.8379H141.825V23.1625H136.113V21.3263H142.498ZM84.7646 25.1052L86.9418 28.5821H84.7924L82.7973 25.3032H79.9879V28.5821H78.0129V19.6386H83.4016C85.46 19.6386 86.6889 20.7002 86.6889 22.4771C86.6889 23.7688 85.9885 24.7241 84.7646 25.1052ZM84.7267 22.4894C84.7267 21.7223 84.183 21.3016 83.1993 21.3016H79.9879V23.6649H83.1993C84.1704 23.6649 84.7267 23.2368 84.7267 22.4894ZM125.813 28.5821H123.838V19.6386H129.227C131.285 19.6386 132.514 20.7002 132.514 22.4771C132.514 23.7688 131.814 24.7241 130.59 25.1052L132.767 28.5821H130.618L128.622 25.3032H125.813V28.5821ZM125.813 23.6649H129.025C129.996 23.6649 130.552 23.2368 130.552 22.4894C130.552 21.7421 130.008 21.3016 129.025 21.3016H125.813V23.6649ZM102.807 27.0404C101.892 27.0404 100.192 26.8152 99.1074 25.3007L99.0594 25.2339L97.8027 26.5949L97.8305 26.637C98.6473 27.862 100.665 28.7157 102.736 28.7157C105.399 28.7157 107.053 27.5799 107.053 25.7536C107.053 23.8109 105.325 23.4595 102.888 23.1724C100.764 22.9176 100.339 22.7765 100.339 22.1925C100.339 21.6951 100.792 21.163 102.362 21.163C103.783 21.163 104.964 21.6555 105.601 22.5117L105.647 22.5736L106.896 21.3263L106.863 21.2818C106.076 20.1979 104.344 19.5 102.453 19.5C100.033 19.5 98.4095 20.6557 98.4095 22.3756C98.4095 24.239 100.175 24.6004 102.139 24.833L102.185 24.8379C104.532 25.1027 105.053 25.1745 105.053 25.9466C105.053 26.5974 104.218 27.0354 102.81 27.0354L102.807 27.0404ZM66.5553 38.132V32.9326H64.5804V36.4442H59.4749V32.9326H57.5V41.8786H59.4749V38.1344H64.5804V41.8786H66.5553V38.1344V38.132ZM75.4867 39.8271H70.7783L69.787 41.8786H67.6579L72.0604 32.9351H74.2224L78.6249 41.8786H76.4704L75.4918 39.8271H75.4867ZM74.6826 38.1641L73.1325 34.9297L71.5723 38.1641H74.6826ZM105.055 32.9326L109.458 41.8761H107.303L106.325 39.8246H101.616L100.625 41.8761H98.4955L102.898 32.9326H105.06H105.055ZM105.518 38.1641L103.968 34.9297L102.407 38.1641H105.518ZM131.306 41.8786L130.327 39.8271H125.618L124.627 41.8786H122.498L126.901 32.9351H129.063L133.465 41.8786H131.311H131.306ZM129.52 38.1641L127.97 34.9297L126.41 38.1641H129.52ZM77.5755 34.6204H81.2623V41.8761H83.2499V34.6204H86.9368V32.9326H77.5755V34.6204ZM90.1988 28.5821H90.3075V25.8501L91.6478 24.6944L95.1551 28.5821H97.7521L93.0942 23.4397L97.5118 19.6386H94.7379L90.3126 23.5684V19.6386H88.3377V28.5821H90.2039H90.1988ZM97.388 38.1344V32.9351H95.413V36.4467H90.3075V32.9351H88.3326V41.8811H90.3075V38.1369H95.413V41.8811H97.388V38.1369V38.1344ZM110.603 28.5821V24.8379H115.706V28.5821H117.681V19.6386H115.706V23.1502H110.603V19.6361H108.628V28.5821H110.603ZM123.323 32.9326L120.316 41.8761H118.202L116.184 35.2935L114.143 41.8761H112.039L112.024 41.8316L109.033 32.9302H111.104L113.197 39.3396L115.193 32.9302H117.208L119.19 39.3396L121.284 32.9302H123.317L123.323 32.9326ZM113.233 39.4188H113.228L113.23 39.4287V39.4188H113.233ZM140.262 32.9326H140.131L137.261 36.3502L134.391 32.9326H131.976L136.257 38.0256V41.8761H138.232V38.0256L142.5 32.9326H140.265H140.262ZM60.8657 49.414H58.38V47.2512H57.5V52.3911H58.38V50.2208H60.8682V52.3911H61.7432V47.2512H60.8682V49.414H60.8657ZM69.83 48.4217C70.0298 48.8226 70.1309 49.2903 70.1309 49.8199C70.1309 50.3495 70.0298 50.8172 69.83 51.2181C69.6302 51.6215 69.342 51.9333 68.9652 52.1585C68.5884 52.3837 68.1383 52.4951 67.6149 52.4951C67.0914 52.4951 66.6388 52.3837 66.2645 52.1585C65.8903 51.9333 65.602 51.6215 65.4022 51.2181C65.2024 50.8172 65.1013 50.3495 65.1013 49.8199C65.1013 49.2903 65.2024 48.8226 65.4022 48.4217C65.602 48.0208 65.8903 47.7065 66.2645 47.4813C66.6388 47.2561 67.0889 47.1448 67.6149 47.1448C68.1408 47.1448 68.591 47.2561 68.9652 47.4813C69.342 47.7065 69.6277 48.0208 69.83 48.4217ZM69.2004 49.8199C69.2004 49.4437 69.1422 49.1171 69.0234 48.8399C68.9045 48.5628 68.73 48.3475 68.4949 48.1916C68.2597 48.0381 67.9664 47.9565 67.6149 47.9515C67.2634 47.9515 66.97 48.0258 66.7348 48.1792C66.5022 48.3351 66.3252 48.5504 66.2089 48.8325C66.0901 49.1121 66.0319 49.4413 66.0319 49.8174C66.0319 50.1936 66.0901 50.5202 66.2063 50.7974C66.3227 51.0746 66.4997 51.2899 66.7323 51.4458C66.9675 51.6017 67.2608 51.6809 67.6123 51.6858C67.9638 51.6858 68.2572 51.6116 68.4923 51.4582C68.7275 51.3047 68.902 51.087 69.0208 50.8048C69.1397 50.5252 69.1978 50.196 69.1978 49.8199H69.2004ZM76.0987 50.8915L74.2831 47.2512H73.4916V52.3911H74.316V49.0973L75.9242 52.3911H76.2732L77.884 49.0973V52.3911H78.7033V47.2512H77.9118L76.0962 50.8915H76.0987ZM82.3598 52.3911H85.7508V51.5844H83.2373V50.1317H85.3133V49.325H83.2373V48.0579H85.7508V47.2512H82.3598V52.3911ZM92.7048 49.857C92.5556 49.7555 92.4013 49.6739 92.242 49.617C92.0827 49.56 91.936 49.5155 91.8071 49.4809L90.8664 49.2235C90.7475 49.1938 90.6287 49.1542 90.5149 49.1072C90.3986 49.0602 90.3025 48.9983 90.2241 48.9191C90.1457 48.8399 90.1078 48.736 90.1078 48.6098C90.1078 48.4761 90.1533 48.3598 90.2443 48.2608C90.3354 48.1619 90.4567 48.0851 90.6059 48.0307C90.7551 47.9763 90.917 47.9515 91.094 47.954C91.2735 47.9589 91.4429 47.9936 91.6022 48.0604C91.7616 48.1272 91.8956 48.2237 92.0068 48.3524C92.1181 48.4811 92.1914 48.6345 92.2319 48.8152L93.1776 48.6543C93.0992 48.3376 92.9652 48.0678 92.7756 47.8451C92.5859 47.6224 92.3507 47.4516 92.0675 47.3328C91.7843 47.2141 91.4657 47.1547 91.1041 47.1522C90.7501 47.1522 90.4264 47.2042 90.1356 47.3155C89.8448 47.4269 89.6147 47.5952 89.4427 47.8204C89.2708 48.0456 89.1848 48.3227 89.1848 48.6543C89.1848 48.8795 89.2227 49.0701 89.2986 49.2235C89.3744 49.3769 89.473 49.5031 89.5944 49.6021C89.7158 49.7011 89.8422 49.7778 89.9763 49.8347C90.1103 49.8917 90.2367 49.9362 90.3531 49.9684L91.7085 50.3619C91.8045 50.3916 91.8905 50.4237 91.9664 50.4633C92.0397 50.5029 92.1004 50.545 92.1485 50.5945C92.1965 50.6415 92.2319 50.6959 92.2572 50.7578C92.2825 50.8197 92.2926 50.884 92.2926 50.9558C92.2926 51.1142 92.242 51.2503 92.1384 51.3592C92.0346 51.4681 91.9006 51.5522 91.7363 51.6091C91.5719 51.666 91.3949 51.6957 91.2078 51.6957C90.8917 51.6957 90.6135 51.6116 90.3708 51.4458C90.128 51.28 89.9687 51.0449 89.8903 50.738L88.9775 50.8742C89.0305 51.2107 89.157 51.5002 89.3542 51.7428C89.5515 51.9878 89.8043 52.1734 90.1128 52.3045C90.4213 52.4357 90.7653 52.5 91.1496 52.5C91.4202 52.5 91.6781 52.4678 91.9234 52.401C92.1712 52.3342 92.3887 52.2352 92.5809 52.1016C92.773 51.968 92.9248 51.8022 93.0385 51.5992C93.1523 51.3988 93.208 51.1637 93.208 50.8989C93.208 50.6341 93.1599 50.4312 93.0638 50.2629C92.9677 50.0971 92.8464 49.9609 92.6972 49.8595L92.7048 49.857ZM96.6395 52.3911H100.03V51.5844H97.5169V50.1317H99.593V49.325H97.5169V48.0579H100.03V47.2512H96.6395V52.3911ZM106.58 50.4435L107.551 52.3911H106.554L105.665 50.597H104.415V52.3911H103.535V47.2512H105.705C105.756 47.2512 105.821 47.2512 105.902 47.2561C105.983 47.2586 106.056 47.2685 106.125 47.2784C106.428 47.3229 106.679 47.4219 106.878 47.5754C107.076 47.7288 107.225 47.9193 107.321 48.152C107.417 48.3846 107.465 48.6419 107.465 48.9241C107.465 49.3423 107.356 49.7036 107.141 50.003C107.002 50.196 106.815 50.3421 106.58 50.441V50.4435ZM104.418 49.7927H105.672C105.72 49.7927 105.776 49.7927 105.837 49.7853C105.897 49.7803 105.953 49.7704 106.003 49.7556C106.15 49.7209 106.264 49.6566 106.347 49.5675C106.431 49.4759 106.491 49.3745 106.527 49.2606C106.562 49.1468 106.58 49.0354 106.58 48.9241C106.58 48.8127 106.562 48.7013 106.527 48.5875C106.491 48.4737 106.433 48.3697 106.347 48.2782C106.264 48.1866 106.147 48.1247 106.003 48.0901C105.953 48.0753 105.897 48.0678 105.837 48.0629C105.776 48.0604 105.72 48.0579 105.672 48.0579H104.418V49.7927ZM112.8 51.5547L111.415 47.2512H110.509L112.166 52.3911H113.453L115.109 47.2512H114.204L112.8 51.5547ZM118.361 52.3887H119.241V47.2487H118.361V52.3887ZM124.306 48.1841C124.541 48.0307 124.835 47.9515 125.186 47.9515C125.578 47.9515 125.897 48.0456 126.142 48.2361C126.387 48.4267 126.562 48.6865 126.663 49.023L127.548 48.783C127.386 48.2806 127.103 47.8822 126.698 47.5853C126.294 47.2883 125.79 47.1398 125.186 47.1398C124.66 47.1398 124.21 47.2512 123.836 47.4764C123.462 47.7016 123.173 48.0159 122.973 48.4168C122.774 48.8176 122.673 49.2854 122.673 49.8149C122.673 50.3445 122.774 50.8123 122.973 51.2132C123.173 51.6166 123.462 51.9284 123.836 52.1536C124.21 52.3788 124.66 52.4901 125.186 52.4901C125.79 52.4901 126.296 52.3416 126.698 52.0447C127.103 51.7477 127.386 51.3493 127.548 50.8469L126.663 50.6069C126.562 50.941 126.387 51.2008 126.142 51.3914C125.897 51.5819 125.578 51.6759 125.186 51.6759C124.835 51.6759 124.539 51.5992 124.304 51.4433C124.068 51.2899 123.891 51.0721 123.772 50.7925C123.654 50.5128 123.596 50.1861 123.596 49.81C123.596 49.4338 123.659 49.1072 123.775 48.8275C123.894 48.5479 124.068 48.3301 124.304 48.1767L124.306 48.1841ZM130.984 52.3887H134.376V51.5819H131.862V50.1292H133.938V49.3225H131.862V48.0554H134.376V47.2487H130.984V52.3887ZM141.329 49.8545C141.18 49.7531 141.026 49.6714 140.867 49.6145C140.707 49.5576 140.561 49.513 140.432 49.4784L139.491 49.221C139.372 49.1913 139.253 49.1517 139.14 49.1047C139.023 49.0577 138.927 48.9958 138.849 48.9166C138.77 48.8374 138.732 48.7335 138.732 48.6073C138.732 48.4737 138.778 48.3574 138.869 48.2584C138.96 48.1594 139.082 48.0827 139.23 48.0282C139.38 47.9738 139.542 47.949 139.719 47.9515C139.898 47.9565 140.068 47.9911 140.227 48.0579C140.386 48.1247 140.52 48.2213 140.632 48.3499C140.743 48.4786 140.816 48.632 140.857 48.8127L141.802 48.6518C141.724 48.3351 141.59 48.0653 141.4 47.8426C141.211 47.6199 140.976 47.4492 140.692 47.3304C140.409 47.2116 140.09 47.1522 139.729 47.1497C139.375 47.1497 139.051 47.2017 138.76 47.313C138.469 47.4244 138.239 47.5927 138.067 47.8179C137.896 48.0431 137.809 48.3202 137.809 48.6518C137.809 48.877 137.847 49.0676 137.923 49.221C137.999 49.3744 138.098 49.5007 138.219 49.5996C138.341 49.6986 138.467 49.7753 138.601 49.8323C138.735 49.8892 138.861 49.9337 138.978 49.9659L140.333 50.3594C140.429 50.3891 140.515 50.4212 140.591 50.4608C140.664 50.5005 140.725 50.5425 140.773 50.592C140.821 50.639 140.857 50.6935 140.882 50.7553C140.907 50.8172 140.917 50.8816 140.917 50.9533C140.917 51.1117 140.867 51.2478 140.763 51.3567C140.659 51.4656 140.525 51.5497 140.361 51.6067C140.197 51.6636 140.019 51.6933 139.833 51.6933C139.516 51.6933 139.238 51.6091 138.995 51.4433C138.752 51.2775 138.594 51.0424 138.515 50.7355L137.602 50.8717C137.655 51.2082 137.782 51.4978 137.979 51.7403C138.176 51.9853 138.429 52.1709 138.738 52.302C139.046 52.4332 139.39 52.4975 139.774 52.4975C140.045 52.4975 140.303 52.4654 140.548 52.3985C140.796 52.3317 141.013 52.2327 141.205 52.0991C141.398 51.9655 141.549 51.7997 141.663 51.5968C141.777 51.3963 141.833 51.1612 141.833 50.8964C141.833 50.6316 141.784 50.4287 141.689 50.2604C141.592 50.0946 141.471 49.9585 141.322 49.857L141.329 49.8545Z" fill="#79003C"/>
</g>
</svg>
